<?xml version="1.0" encoding="utf-8"?>
<!-- Generator: Adobe Illustrator 25.0.0, SVG Export Plug-In . SVG Version: 6.00 Build 0)  -->
<svg version="1.1" id="Layer_1" xmlns="http://www.w3.org/2000/svg" xmlns:xlink="http://www.w3.org/1999/xlink" x="0px" y="0px"
	 viewBox="0 0 195.9 37" style="enable-background:new 0 0 195.9 37;" xml:space="preserve">
<style type="text/css">
	.st0{fill:url(#SVGID_1_);}
	.st1{fill:#004F6C;}
	.st2{fill:#187390;}
</style>
<g>
	<linearGradient id="SVGID_1_" gradientUnits="userSpaceOnUse" x1="26.9194" y1="4.3784" x2="26.9194" y2="34.0018">
		<stop  offset="0" style="stop-color:#3CC1D1"/>
		<stop  offset="0.1848" style="stop-color:#2BA0B4"/>
		<stop  offset="0.4186" style="stop-color:#187D95"/>
		<stop  offset="0.6393" style="stop-color:#0B647E"/>
		<stop  offset="0.8392" style="stop-color:#035471"/>
		<stop  offset="1" style="stop-color:#004F6C"/>
	</linearGradient>
	<path class="st0" d="M39,9.8L28.4,3.7c-0.4-0.2-1-0.4-1.5-0.4c-0.6,0-1.1,0.1-1.5,0.4L14.9,9.8c-0.9,0.5-1.5,1.6-1.5,2.6v12.2
		c0,1,0.7,2.1,1.5,2.6l10.5,6.1c0.4,0.2,1,0.4,1.5,0.4c0.6,0,1.1-0.1,1.5-0.4L39,27.2c0.9-0.5,1.5-1.6,1.5-2.6V12.4
		C40.5,11.4,39.8,10.3,39,9.8z M16.6,17.5l-0.5-1.2l0.6-1l-0.3-0.5l0.6-1.5l1.9,1.9L16.6,17.5z M38.6,24.6c0,0.3-0.3,0.8-0.6,1
		l-10.5,6.1c-0.1,0.1-0.3,0.1-0.6,0.1c-0.2,0-0.3,0-0.4-0.1L23,23.5l2.6-4.2l-1.3-2l2.7-7.2l11.6,11.2V24.6z M38.6,18.7l-3.3-3.2
		l-0.2-0.5l0.9-0.8l-0.2-0.8l0.2-1.4l2.6,2.5V18.7z M38.6,13.6l-2.3-2.2c-0.1-0.1-0.4-0.1-0.5,0l-2.4,2.3l-5.7-5.5
		c-0.4-0.4-1-0.4-1.3,0l-6.8,6.6l-2.2-2.1c-0.1-0.1-0.4-0.1-0.5,0L15.3,14v-1.6c0-0.3,0.3-0.8,0.6-1l10.5-6.1
		c0.1-0.1,0.3-0.1,0.6-0.1c0.3,0,0.5,0.1,0.6,0.1L38,11.5c0.3,0.2,0.6,0.6,0.6,1V13.6z"/>
	<g>
		<g>
			<path class="st1" d="M66.6,10.4l-4.9,7.5h-0.1l-4.9-7.4v11.4h-3.8V4.3h4.1l4.6,7.4l4.6-7.4h4.1v17.5h-3.8V10.4z"/>
			<path class="st1" d="M107.5,17.6c-0.8,1.4-1.9,2.5-3.3,3.3c-1.4,0.8-3,1.2-4.8,1.2c-1.8,0-3.4-0.4-4.8-1.2
				c-1.4-0.8-2.5-1.9-3.3-3.3c-0.8-1.4-1.2-2.9-1.2-4.5v0c0-1.7,0.4-3.2,1.2-4.5c0.8-1.4,1.9-2.5,3.3-3.3c1.4-0.8,3-1.2,4.8-1.2
				s3.4,0.4,4.8,1.2c1.4,0.8,2.5,1.9,3.3,3.3c0.8,1.4,1.2,2.9,1.2,4.5v0C108.7,14.7,108.3,16.2,107.5,17.6z M104,10.3
				c-0.5-0.8-1.1-1.5-1.9-2c-0.8-0.5-1.7-0.7-2.7-0.7c-1,0-1.9,0.2-2.7,0.7c-0.8,0.5-1.4,1.1-1.9,2c-0.4,0.8-0.7,1.8-0.7,2.8v0
				c0,1,0.2,1.9,0.7,2.8c0.5,0.8,1.1,1.5,1.9,2c0.8,0.5,1.7,0.7,2.7,0.7s1.9-0.2,2.7-0.7c0.8-0.5,1.4-1.1,1.9-2
				c0.4-0.8,0.7-1.8,0.7-2.8v0C104.7,12.1,104.4,11.1,104,10.3z"/>
			<path class="st1" d="M145,17.6c-0.8,1.4-1.9,2.5-3.3,3.3c-1.4,0.8-3,1.2-4.8,1.2s-3.4-0.4-4.8-1.2c-1.4-0.8-2.5-1.9-3.3-3.3
				c-0.8-1.4-1.2-2.9-1.2-4.5v0c0-1.7,0.4-3.2,1.2-4.5c0.8-1.4,1.9-2.5,3.3-3.3c1.4-0.8,3-1.2,4.8-1.2c1.8,0,3.4,0.4,4.8,1.2
				c1.4,0.8,2.5,1.9,3.3,3.3c0.8,1.4,1.2,2.9,1.2,4.5v0C146.2,14.7,145.8,16.2,145,17.6z M141.5,10.3c-0.5-0.8-1.1-1.5-1.9-2
				c-0.8-0.5-1.7-0.7-2.7-0.7s-1.9,0.2-2.7,0.7c-0.8,0.5-1.4,1.1-1.9,2c-0.5,0.8-0.7,1.8-0.7,2.8v0c0,1,0.2,1.9,0.7,2.8
				c0.5,0.8,1.1,1.5,1.9,2c0.8,0.5,1.7,0.7,2.7,0.7c1,0,1.9-0.2,2.7-0.7c0.8-0.5,1.4-1.1,1.9-2c0.5-0.8,0.7-1.8,0.7-2.8v0
				C142.2,12.1,141.9,11.1,141.5,10.3z"/>
			<path class="st1" d="M169.7,10.7v11.1h-3.8V4.3h3.6l8.2,10.8V4.3h3.8v17.5h-3.3L169.7,10.7z"/>
		</g>
		<g>
			<path class="st2" d="M57.6,32.2c-0.5,0.4-1.2,0.5-2.1,0.5h-3.7v-7.7h3.6c0.8,0,1.4,0.2,1.9,0.5c0.5,0.4,0.7,0.8,0.7,1.5v0
				c0,0.7-0.3,1.3-1,1.7c0.5,0.2,0.8,0.4,1.1,0.7c0.2,0.3,0.4,0.7,0.4,1.2v0C58.3,31.3,58.1,31.9,57.6,32.2z M55.9,26.8
				c-0.2-0.1-0.5-0.2-0.8-0.2h-1.7v1.6H55c0.4,0,0.7-0.1,0.9-0.2s0.3-0.3,0.3-0.6v0C56.2,27.1,56.1,26.9,55.9,26.8z M56.3,29.8
				c-0.2-0.1-0.5-0.2-0.9-0.2h-2v1.7h2c0.4,0,0.7-0.1,0.9-0.2c0.2-0.1,0.3-0.3,0.3-0.6v0C56.6,30.2,56.5,30,56.3,29.8z"/>
			<path class="st2" d="M69.2,30.9c-0.4,0.6-0.8,1.1-1.5,1.4c-0.6,0.4-1.3,0.5-2.1,0.5s-1.5-0.2-2.1-0.5c-0.6-0.4-1.1-0.8-1.5-1.4
				c-0.4-0.6-0.5-1.3-0.5-2v0c0-0.7,0.2-1.4,0.5-2c0.4-0.6,0.8-1.1,1.5-1.4c0.6-0.4,1.3-0.5,2.1-0.5s1.5,0.2,2.1,0.5
				c0.6,0.4,1.1,0.8,1.5,1.4c0.4,0.6,0.5,1.3,0.5,2v0C69.8,29.6,69.6,30.3,69.2,30.9z M67.7,27.7c-0.2-0.4-0.5-0.7-0.8-0.9
				c-0.4-0.2-0.8-0.3-1.2-0.3s-0.8,0.1-1.2,0.3c-0.3,0.2-0.6,0.5-0.8,0.9c-0.2,0.4-0.3,0.8-0.3,1.2v0c0,0.4,0.1,0.8,0.3,1.2
				c0.2,0.4,0.5,0.7,0.8,0.9c0.4,0.2,0.8,0.3,1.2,0.3s0.8-0.1,1.2-0.3c0.3-0.2,0.6-0.5,0.8-0.9c0.2-0.4,0.3-0.8,0.3-1.2v0
				C68,28.5,67.9,28.1,67.7,27.7z"/>
			<path class="st2" d="M79.2,32c-0.6,0.6-1.4,0.9-2.5,0.9c-1,0-1.9-0.3-2.5-0.9c-0.6-0.6-0.9-1.4-0.9-2.5v-4.4H75v4.4
				c0,0.6,0.1,1.1,0.4,1.4c0.3,0.3,0.7,0.5,1.2,0.5c0.5,0,0.9-0.2,1.2-0.5c0.3-0.3,0.4-0.8,0.4-1.4v-4.4h1.7v4.3
				C80.1,30.6,79.8,31.4,79.2,32z"/>
			<path class="st2" d="M87.5,32.8h-1.7v-6.1h-2.3v-1.6h6.4v1.6h-2.3V32.8z"/>
			<path class="st2" d="M93.4,25.1h1.7v7.7h-1.7V25.1z"/>
			<path class="st2" d="M105.2,32.2c-0.7,0.4-1.4,0.7-2.3,0.7c-0.8,0-1.5-0.2-2.1-0.5c-0.6-0.4-1.1-0.8-1.5-1.4
				c-0.4-0.6-0.5-1.3-0.5-2v0c0-0.7,0.2-1.4,0.5-2c0.4-0.6,0.8-1.1,1.5-1.4c0.6-0.4,1.3-0.5,2.1-0.5s1.5,0.2,2.1,0.5
				c0.6,0.4,1.1,0.8,1.5,1.4c0.4,0.6,0.5,1.3,0.5,2v0c0,0.4-0.1,0.8-0.2,1.2s-0.3,0.7-0.5,1l0.8,0.7l-1.1,1.2L105.2,32.2z M105,27.7
				c-0.2-0.4-0.5-0.7-0.8-0.9c-0.4-0.2-0.8-0.3-1.2-0.3s-0.8,0.1-1.2,0.3c-0.3,0.2-0.6,0.5-0.8,0.9c-0.2,0.4-0.3,0.8-0.3,1.2v0
				c0,0.4,0.1,0.8,0.3,1.2c0.2,0.4,0.5,0.7,0.8,0.9c0.4,0.2,0.8,0.3,1.2,0.3c0.4,0,0.7-0.1,1-0.2l-1.3-1.1l1.1-1.2l1.3,1.1
				c0.1-0.3,0.2-0.7,0.2-1.1v0C105.3,28.5,105.2,28.1,105,27.7z"/>
			<path class="st2" d="M116.5,32c-0.6,0.6-1.4,0.9-2.5,0.9c-1,0-1.9-0.3-2.5-0.9c-0.6-0.6-0.9-1.4-0.9-2.5v-4.4h1.7v4.4
				c0,0.6,0.1,1.1,0.4,1.4c0.3,0.3,0.7,0.5,1.2,0.5c0.5,0,0.9-0.2,1.2-0.5c0.3-0.3,0.4-0.8,0.4-1.4v-4.4h1.7v4.3
				C117.4,30.6,117.1,31.4,116.5,32z"/>
			<path class="st2" d="M121.3,25.1h5.8v1.5H123v1.6h3.6v1.5H123v1.6h4.2v1.5h-5.9V25.1z"/>
			<path class="st2" d="M141.2,29.7H138v3.1h-1.7v-7.7h1.7v3h3.1v-3h1.7v7.7h-1.7V29.7z"/>
			<path class="st2" d="M154.2,30.9c-0.4,0.6-0.8,1.1-1.5,1.4c-0.6,0.4-1.3,0.5-2.1,0.5s-1.5-0.2-2.1-0.5c-0.6-0.4-1.1-0.8-1.5-1.4
				c-0.4-0.6-0.5-1.3-0.5-2v0c0-0.7,0.2-1.4,0.5-2c0.4-0.6,0.8-1.1,1.5-1.4c0.6-0.4,1.3-0.5,2.1-0.5s1.5,0.2,2.1,0.5
				c0.6,0.4,1.1,0.8,1.5,1.4c0.4,0.6,0.5,1.3,0.5,2v0C154.8,29.6,154.6,30.3,154.2,30.9z M152.7,27.7c-0.2-0.4-0.5-0.7-0.8-0.9
				c-0.4-0.2-0.8-0.3-1.2-0.3s-0.8,0.1-1.2,0.3c-0.3,0.2-0.6,0.5-0.8,0.9c-0.2,0.4-0.3,0.8-0.3,1.2v0c0,0.4,0.1,0.8,0.3,1.2
				c0.2,0.4,0.5,0.7,0.8,0.9c0.4,0.2,0.8,0.3,1.2,0.3s0.8-0.1,1.2-0.3c0.3-0.2,0.6-0.5,0.8-0.9c0.2-0.4,0.3-0.8,0.3-1.2v0
				C153,28.5,152.9,28.1,152.7,27.7z"/>
			<path class="st2" d="M161.6,32.8h-1.7v-6.1h-2.3v-1.6h6.4v1.6h-2.3V32.8z"/>
			<path class="st2" d="M167.5,25.1h5.8v1.5h-4.1v1.6h3.6v1.5h-3.6v1.6h4.2v1.5h-5.9V25.1z"/>
			<path class="st2" d="M177,25.1h1.7v6.2h3.8v1.5H177V25.1z"/>
		</g>
	</g>
</g>
</svg>
